<svg width="25" height="25" viewBox="0 0 25 25" fill="none" xmlns="http://www.w3.org/2000/svg">
<g clip-path="url(#clip0_25_1117)">
<path d="M14.4531 16.7969H3.90625" stroke="#757575" stroke-width="1.5" stroke-linecap="round" stroke-linejoin="round"/>
<path d="M21.0938 16.7969H18.3594" stroke="#757575" stroke-width="1.5" stroke-linecap="round" stroke-linejoin="round"/>
<path d="M16.4062 18.75C17.4849 18.75 18.3594 17.8756 18.3594 16.7969C18.3594 15.7182 17.4849 14.8438 16.4062 14.8438C15.3276 14.8438 14.4531 15.7182 14.4531 16.7969C14.4531 17.8756 15.3276 18.75 16.4062 18.75Z" stroke="#757575" stroke-width="1.5" stroke-linecap="round" stroke-linejoin="round"/>
<path d="M8.20312 8.20312H3.90625" stroke="#757575" stroke-width="1.5" stroke-linecap="round" stroke-linejoin="round"/>
<path d="M21.0938 8.20312H12.1094" stroke="#757575" stroke-width="1.5" stroke-linecap="round" stroke-linejoin="round"/>
<path d="M10.1562 10.1562C11.2349 10.1562 12.1094 9.28181 12.1094 8.20312C12.1094 7.12444 11.2349 6.25 10.1562 6.25C9.07757 6.25 8.20312 7.12444 8.20312 8.20312C8.20312 9.28181 9.07757 10.1562 10.1562 10.1562Z" stroke="#757575" stroke-width="1.5" stroke-linecap="round" stroke-linejoin="round"/>
</g>
<defs>
<clipPath id="clip0_25_1117">
<rect width="25" height="25" fill="white"/>
</clipPath>
</defs>
</svg>
